PathFileType	4	(X/Y/Z)	8_coords_data.trc
DataRate	CameraRate	NumFrames	NumMarkers	Units	OrigDataRate	OrigDataStartFrame	OrigNumFrames
30.0	30.0	7	21	m	30.0	50	59
Frame#	Time	THUMB_TIP	THUMB_IP	THUMB_MCP	THUMB_CMC	INDEX_TIP	INDEX_DIP	INDEX_PIP	INDEX_MCP	MIDDLE_TIP	MIDDLE_DIP	MIDDLE_PIP	MIDDLE_MCP	RING_TIP	RING_DIP	RING_PIP	RING_MCP	PINKY_TIP	PINKY_DIP	PINKY_PIP	PINKY_MCP	WRIST
X1	Y1	Z1	X2	Y2	Z2	X3	Y3	Z3	X4	Y4	Z4	X5	Y5	Z5	X6	Y6	Z6	X7	Y7	Z7	X8	Y8	Z8	X9	Y9	Z9	X10	Y10	Z10	X11	Y11	Z11	X12	Y12	Z12	X13	Y13	Z13	X14	Y14	Z14	X15	Y15	Z15	X16	Y16	Z16	X17	Y17	Z17	X18	Y18	Z18	X19	Y19	Z19	X20	Y20	Z20	X21	Y21	Z21
49	1.6333333333333333	-0.05428990173339844	-0.08568930053710938	0.9646190185546875	-0.05215700149536133	-0.062268299102783205	0.9765050048828126	-0.05601959991455078	-0.04100439834594727	0.99322802734375	-0.05953499984741211	-0.011055500030517577	1.0056099853515625	-0.04275490188598633	-0.04822460174560547	0.8768280029296875	-0.046917301177978515	-0.04430569839477539	0.8981300048828125	-0.05352640151977539	-0.03965879821777344	0.9187249755859375	-0.06102099990844727	-0.029255699157714844	0.9535330200195312	-0.04083750152587891	-0.018224199295043944	0.8606380004882812	-0.04632880020141601	-0.0167362003326416	0.8841599731445312	-0.05625490188598633	-0.014054699897766114	0.909864990234375	-0.06330500030517579	-0.009035140037536622	0.94747998046875	-0.03973749923706055	0.005565130233764649	0.86877099609375	-0.04760340118408203	0.007227469921112059	0.8906810302734375	-0.05686140060424805	0.008529060363769532	0.914156982421875	-0.06050360107421875	0.009484299659729004	0.9484760131835938	-0.04408570098876953	0.03827859878540039	0.8923400268554688	-0.04831539916992188	0.03507699966430664	0.91189501953125	-0.05247589874267578	0.031711799621582035	0.9284180297851562	-0.05564530181884766	0.02617650032043457	0.9535670166015625	-0.08464189910888673	0.01590030002593994	1.0199000244140626
50	1.6666666666666667	-0.05497000122070313	-0.08625420379638672	0.9645800170898438	-0.05266770172119141	-0.06283530044555664	0.9764420166015625	-0.05650199890136719	-0.041570701599121095	0.9930880126953125	-0.059743499755859374	-0.011545700073242187	1.0054500122070313	-0.04284920120239258	-0.048844200134277344	0.8767249755859375	-0.047037601470947266	-0.04489839935302734	0.8980050048828125	-0.05369910049438477	-0.04015890121459961	0.91864697265625	-0.061181198120117186	-0.029661600112915038	0.9533660278320313	-0.04036769866943359	-0.018761600494384766	0.8606179809570312	-0.04602040100097656	-0.01722159957885742	0.8841339721679687	-0.056118000030517576	-0.014552900314331055	0.909718994140625	-0.06336059951782226	-0.009507499694824218	0.94725	-0.039451499938964844	0.004996940135955811	0.8687139892578125	-0.047365699768066406	0.006706309795379639	0.8905859985351563	-0.05671969985961914	0.0080420503616333	0.914031982421875	-0.06053409957885742	0.008975890159606934	0.948218994140625	-0.04387360000610351	0.03767620086669922	0.8921950073242187	-0.04817620086669922	0.034554798126220705	0.911656982421875	-0.05237680053710937	0.03122719955444336	0.928177001953125	-0.05563719940185547	0.02573469924926758	0.9533259887695312	-0.08461489868164063	0.0152878999710083	1.0195700073242187
51	1.7	-0.054767799377441403	-0.08690180206298828	0.9644429931640625	-0.05251089859008789	-0.06348490142822266	0.976280029296875	-0.056436500549316405	-0.04220840072631836	0.9930050048828125	-0.059698600769042966	-0.012163999557495118	1.0053800048828125	-0.042780399322509766	-0.04963479995727539	0.876614990234375	-0.046964401245117186	-0.045658298492431644	0.8978720092773438	-0.05360430145263672	-0.04090810012817383	0.918530029296875	-0.0610791015625	-0.030399499893188478	0.953281982421875	-0.040103900909423826	-0.01946489906311035	0.8604730224609375	-0.04577619934082031	-0.01791550064086914	0.8839600219726562	-0.0559197998046875	-0.015277700424194336	0.9095490112304687	-0.0633031005859375	-0.01024839973449707	0.9471950073242188	-0.03940069961547851	0.004232540130615235	0.8685180053710938	-0.04730429840087891	0.005956980228424072	0.8904119873046875	-0.056666801452636716	0.0073232297897338865	0.9138330078125	-0.06048669815063477	0.00826852035522461	0.9480679931640625	-0.043780601501464844	0.03690570068359375	0.8919860229492188	-0.048064701080322264	0.033795799255371094	0.911510986328125	-0.05227230072021485	0.03051919937133789	0.9280269775390625	-0.055561901092529294	0.025026899337768554	0.9532109985351562	-0.08455480194091797	0.014671600341796875	1.019469970703125
52	1.7333333333333334	-0.054554500579833985	-0.08767900085449219	0.9644019775390625	-0.052305198669433596	-0.06426799774169922	0.9762340087890625	-0.05612110137939453	-0.04296530151367187	0.9929169921875	-0.05939929962158203	-0.012937199592590333	1.005260009765625	-0.04306859970092773	-0.05054249954223633	0.8765170288085937	-0.04708750152587891	-0.046570999145507816	0.8977869873046875	-0.053632400512695313	-0.04180540084838867	0.9184359741210938	-0.0609984016418457	-0.031286300659179686	0.9531929931640625	-0.04018119812011719	-0.020366600036621094	0.8603900146484375	-0.04578659820556641	-0.01883259963989258	0.8839739990234375	-0.05582590103149414	-0.016138299942016602	0.9095850219726562	-0.06315060043334961	-0.011058099746704101	0.9471129760742187	-0.03972019958496094	0.003436609983444214	0.86827001953125	-0.04751340103149414	0.005171780109405518	0.8902839965820313	-0.0567510986328125	0.006536509990692139	0.9137230224609375	-0.060366798400878906	0.007454649925231933	0.9479329833984375	-0.04385710144042969	0.03596609878540039	0.8917979736328125	-0.048111400604248046	0.032893798828125	0.911344970703125	-0.052292800903320315	0.029626300811767578	0.9278410034179687	-0.05545420074462891	0.024202999114990235	0.9530880126953125	-0.0844531021118164	0.014007399559020996	1.019530029296875
53	1.7666666666666666	-0.05448379898071289	-0.08851699829101563	0.9647319946289062	-0.05220209884643555	-0.06508820343017578	0.9764940185546875	-0.05589960098266602	-0.043771999359130856	0.9931680297851563	-0.05920899963378906	-0.013684700012207032	1.0054000244140624	-0.04285499954223633	-0.051736698150634766	0.8767150268554688	-0.046919200897216795	-0.04761600112915039	0.898030029296875	-0.05342599868774414	-0.042760700225830076	0.9186110229492187	-0.060690399169921874	-0.03197769927978516	0.953458984375	-0.03958330154418945	-0.021607200622558595	0.8605859985351563	-0.04526599884033203	-0.019925500869750975	0.8840780029296875	-0.055452800750732424	-0.017121299743652344	0.9096320190429688	-0.06286470031738281	-0.011871100425720215	0.9472310180664063	-0.039070098876953126	0.002395149946212768	0.8684180297851563	-0.046953899383544925	0.00419543981552124	0.8904340209960937	-0.05626950073242187	0.005656330108642578	0.9138150024414062	-0.06003770065307617	0.00660699987411499	0.9480759887695313	-0.04324620056152344	0.034970199584960934	0.891843017578125	-0.04753730010986328	0.03193160057067871	0.9113670043945312	-0.05181150054931641	0.028722999572753906	0.9278469848632812	-0.05507350158691406	0.023362300872802735	0.953176025390625	-0.08411920166015625	0.01332699966430664	1.019510009765625
54	1.8	-0.053592998504638674	-0.08889669799804688	0.9648930053710938	-0.0515088005065918	-0.06540889739990234	0.976697998046875	-0.05532580184936523	-0.04414500045776367	0.9933179931640626	-0.05871429824829102	-0.014070799827575683	1.00552001953125	-0.042193500518798825	-0.052186798095703125	0.8769180297851562	-0.0462943000793457	-0.0480728988647461	0.898218017578125	-0.052900199890136716	-0.0431859016418457	0.91881298828125	-0.0602760009765625	-0.03255749893188477	0.9534550170898437	-0.03895819854736328	-0.0221963005065918	0.8608460083007813	-0.04471939849853516	-0.02045590019226074	0.8842210083007812	-0.05492060089111328	-0.01764109992980957	0.9097680053710937	-0.06234120178222656	-0.01236709976196289	0.9472999877929688	-0.03877379989624023	0.001919710040092468	0.8685250244140625	-0.046592998504638675	0.003695899963378906	0.8905399780273437	-0.055903499603271484	0.005122310161590577	0.9139739990234375	-0.0595453987121582	0.006130499839782715	0.948218994140625	-0.04288359832763672	0.03442689895629883	0.8919290161132812	-0.0471693000793457	0.031426599502563476	0.9114600219726563	-0.05143280029296875	0.028234699249267577	0.9279619750976562	-0.05466899871826172	0.02289189910888672	0.953260009765625	-0.08359839630126953	0.012788999557495117	1.0195399780273438
55	1.8333333333333333	-0.053383499145507815	-0.08905870056152344	0.9649869995117187	-0.05116070175170898	-0.06557990264892578	0.9767830200195312	-0.05495399856567383	-0.04426480102539063	0.9934169921875	-0.05836399841308594	-0.014187199592590332	1.0055999755859375	-0.04155519866943359	-0.052277400970458986	0.8770549926757812	-0.04571929931640625	-0.04818600082397461	0.89835400390625	-0.05237480163574219	-0.04333380126953125	0.9188989868164062	-0.05979140090942383	-0.03267269897460937	0.9535800170898437	-0.03840349960327148	-0.022313600540161134	0.8609910278320313	-0.044200698852539064	-0.020571300506591797	0.8844099731445313	-0.05446279907226562	-0.017768600463867187	0.9099970092773437	-0.06191830062866211	-0.012512800216674804	0.9474240112304687	-0.038425399780273435	0.0018407100439071652	0.8686320190429687	-0.046205001831054686	0.003581490039825439	0.890635986328125	-0.05553049850463867	0.005000370025634766	0.9140980224609375	-0.05921160125732422	0.00604095983505249	0.9484310302734374	-0.04260300064086914	0.034407299041748045	0.8920490112304688	-0.046860801696777345	0.03137730026245117	0.911572998046875	-0.05112229919433594	0.028147199630737304	0.928072021484375	-0.05438320159912109	0.022780399322509765	0.953364990234375	-0.08328510284423828	0.012640700340270997	1.0195700073242187
